<?xml version="1.0" encoding="UTF-8" standalone="no"?>
<!-- Created with Inkscape (http://www.inkscape.org/) -->

<svg
   xmlns:dc="http://purl.org/dc/elements/1.1/"
   xmlns:cc="http://creativecommons.org/ns#"
   xmlns:rdf="http://www.w3.org/1999/02/22-rdf-syntax-ns#"
   xmlns:svg="http://www.w3.org/2000/svg"
   xmlns="http://www.w3.org/2000/svg"
   xmlns:sodipodi="http://sodipodi.sourceforge.net/DTD/sodipodi-0.dtd"
   xmlns:inkscape="http://www.inkscape.org/namespaces/inkscape"
   width="210"
   height="69"
   id="svg2"
   version="1.1"
   inkscape:version="0.48.4 r9939"
   sodipodi:docname="logo.svg"
   inkscape:export-filename="/home/andreasn/development/cockpit-project.github.io/favicon-152.png"
   inkscape:export-xdpi="90"
   inkscape:export-ydpi="90">
  <defs
     id="defs4" />
  <sodipodi:namedview
     id="base"
     pagecolor="#ffffff"
     bordercolor="#666666"
     borderopacity="1.0"
     inkscape:pageopacity="0.0"
     inkscape:pageshadow="2"
     inkscape:zoom="5.6"
     inkscape:cx="102.66359"
     inkscape:cy="13.627522"
     inkscape:document-units="px"
     inkscape:current-layer="layer1"
     showgrid="false"
     inkscape:snap-nodes="false"
     inkscape:snap-bbox="true"
     inkscape:window-width="1920"
     inkscape:window-height="1014"
     inkscape:window-x="0"
     inkscape:window-y="27"
     inkscape:window-maximized="1"
     inkscape:snap-global="false"
     showborder="true"
     inkscape:showpageshadow="false">
    <inkscape:grid
       type="xygrid"
       id="grid6061"
       empspacing="5"
       visible="true"
       enabled="true"
       snapvisiblegridlinesonly="true" />
  </sodipodi:namedview>
  <metadata
     id="metadata7">
    <rdf:RDF>
      <cc:Work
         rdf:about="">
        <dc:format>image/svg+xml</dc:format>
        <dc:type
           rdf:resource="http://purl.org/dc/dcmitype/StillImage" />
        <dc:title />
      </cc:Work>
    </rdf:RDF>
  </metadata>
  <g
     inkscape:label="Layer 1"
     inkscape:groupmode="layer"
     id="layer1"
     transform="translate(0,-983.36218)">
    <rect
       style="opacity:0;color:#000000;fill:#eeeeec;fill-opacity:1;fill-rule:nonzero;stroke:none;stroke-width:4;marker:none;visibility:visible;display:inline;overflow:visible;enable-background:accumulate"
       id="rect6164-3"
       width="66.496529"
       height="66.496529"
       x="2.5824108"
       y="984.9519"
       inkscape:export-filename="/home/andreasn/SparkleShare/rhsc-design/cockpit-logo-square.png"
       inkscape:export-xdpi="90"
       inkscape:export-ydpi="90" />
    <path
       inkscape:connector-curvature="0"
       d="m 83.364694,1018.9715 c 0,-2.8796 -0.06064,-4.9983 -0.176216,-6.9136 l 4.710149,0 0.201615,4.0857 0.153933,0 c 1.058332,-3.0296 3.567857,-4.5728 5.888729,-4.5728 0.53124,0 0.84169,0.021 1.276529,0.1175 l 0,5.1241 c -0.508954,-0.098 -0.984735,-0.1545 -1.639327,-0.1545 -2.591409,0 -4.390373,1.65 -4.876005,4.1149 -0.09225,0.4804 -0.139935,1.0553 -0.139935,1.6415 l 0,11.1572 -5.444044,0 0.04457,-14.6"
       style="fill:#ffffff;fill-opacity:1;fill-rule:nonzero;stroke:none"
       id="path6104" />
    <path
       inkscape:connector-curvature="0"
       d="m 101.9866,1024.2793 c 0.1446,3.8978 3.16101,5.6025 6.6449,5.6025 2.50123,0 4.29138,-0.3907 5.93641,-0.9966 l 0.80593,3.7443 c -1.84198,0.7801 -4.39608,1.3641 -7.51925,1.3641 -6.98489,0 -11.077772,-4.3138 -11.077772,-10.9071 0,-5.9377 3.602062,-11.5559 10.522172,-11.5559 6.99526,0 9.2726,5.7531 9.2726,10.463 0,1.0113 -0.0891,1.8236 -0.19436,2.3238 l -14.39063,-0.038 z m 9.46176,-3.7904 c 0.0238,-1.9933 -0.84428,-5.2432 -4.4878,-5.2432 -3.34811,0 -4.74022,3.0393 -4.98485,5.2432 l 9.47265,0"
       style="fill:#ffffff;fill-opacity:1;fill-rule:nonzero;stroke:none"
       id="path6106" />
    <path
       inkscape:connector-curvature="0"
       d="m 180.42763,1028.5324 c 0,1.6778 0.0664,3.4155 0.30942,5.0391 l -1.93319,0 -0.30838,-3.0398 -0.0995,0 c -1.02775,1.6358 -3.39215,3.5236 -6.76306,3.5236 -4.26702,0 -6.2536,-3.0034 -6.2536,-5.8316 0,-4.8943 4.3204,-7.8457 12.94981,-7.7553 l 0,-0.5655 c 0,-2.0983 -0.40841,-6.2839 -5.42538,-6.2519 -1.85494,0 -3.78917,0.4978 -5.32432,1.5804 l -0.66754,-1.5257 c 1.93733,-1.3129 4.30329,-1.8332 6.22301,-1.8332 6.12092,0 7.29275,4.5955 7.29275,8.3856 l 0,8.2743 z m -2.09852,-6.2973 c -4.61841,-0.1336 -10.71756,0.5648 -10.71756,5.6586 0,3.048 2.01196,4.4179 4.22141,4.4179 3.5352,0 5.54459,-2.1875 6.2764,-4.2529 0.15393,-0.4535 0.21975,-0.907 0.21975,-1.2714 l 0,-4.5522"
       style="fill:#ffffff;fill-opacity:1;fill-rule:nonzero;stroke:none"
       id="path6108" />
    <path
       inkscape:connector-curvature="0"
       d="m 188.78132,1007.6837 0,4.6747 6.04576,0 0,1.702 -6.04576,0 0,13.7871 c 0,2.6968 0.83754,4.3878 3.11488,4.3878 1.0946,0 1.86892,-0.1447 2.41053,-0.3331 l 0.25395,1.6252 c -0.68568,0.2861 -1.64813,0.5088 -2.92725,0.5088 -1.54863,0 -2.83138,-0.4869 -3.66064,-1.5033 -0.95986,-1.1151 -1.28948,-2.8957 -1.28948,-5.0593 l 0,-13.4132 -3.57875,0 0,-1.702 3.57875,0 0,-3.9004 2.09801,-0.7743"
       style="fill:#ffffff;fill-opacity:1;fill-rule:nonzero;stroke:none"
       id="path6110" />
    <path
       inkscape:connector-curvature="0"
       d="m 154.23104,1011.8725 c -1.6129,0 -3.05942,0.4658 -4.27427,1.2159 -1.26099,0.7388 -2.2877,1.8788 -2.8972,3.0603 l -0.0871,0 0,-10.4966 -2.09801,-0.5717 0,28.4911 2.09801,0 0,-12.9718 c 0,-0.8614 0.0669,-1.4593 0.28765,-2.0898 0.90544,-2.6381 3.39164,-4.8042 6.39716,-4.8042 4.34165,0 5.84519,3.4831 5.84519,7.3026 l 0,12.5632 2.09749,0 0,-12.794 c 0,-7.9005 -5.35852,-8.905 -7.36894,-8.905"
       style="fill:#ffffff;fill-opacity:1;fill-rule:nonzero;stroke:none"
       id="path6112" />
    <path
       inkscape:connector-curvature="0"
       d="m 140.00885,1003.7616 -5.4373,-1.4725 0,12.0848 -0.0902,0 c -0.96245,-1.5885 -3.08326,-2.8031 -6.02918,-2.8031 -5.17298,0 -9.67841,4.2821 -9.64472,11.4897 0,6.6128 4.06852,10.9948 9.20678,10.9948 3.10451,0 5.70058,-1.4798 6.98593,-3.8896 l 0.0969,0 0.24412,3.4058 4.84646,0 c -0.0995,-1.4622 -0.17881,-3.8314 -0.17881,-6.0337 l 0,-23.7762 z m -5.4373,20.4808 c 0,0.5713 -0.0404,1.1024 -0.16534,1.5876 -0.54834,2.3546 -2.47324,3.8716 -4.6972,3.8716 -3.42584,0 -5.38598,-2.8875 -5.38598,-6.8409 0,-3.991 1.94252,-7.0796 5.44818,-7.0796 2.44577,0 4.19654,1.7246 4.6775,3.8195 0.0933,0.441 0.12284,0.9839 0.12284,1.4177 l 0,3.2241"
       style="fill:#ffffff;fill-opacity:1;fill-rule:nonzero;stroke:none"
       id="path6114" />
    <path
       inkscape:connector-curvature="0"
       d="m 62.31724,1034.0598 c -1.21019,-0.2783 -2.494498,-0.4518 -3.793314,-0.4518 -2.22048,0 -4.241575,0.3841 -5.732675,1.0042 -0.164399,0.082 -0.281373,0.2534 -0.281373,0.4488 0,0.071 0.01821,0.1437 0.04514,0.2034 0.176113,0.5112 -0.1134,1.0655 -1.555677,1.3828 -2.139105,0.4697 -3.489282,2.676 -4.262455,3.4099 -0.907202,0.8609 -3.469488,1.3909 -3.084405,0.8777 0.301641,-0.4019 1.455442,-1.6541 2.15673,-3.0085 0.627639,-1.2103 1.186401,-1.5538 1.95574,-2.7084 0.225917,-0.3385 1.100936,-1.5279 1.355827,-2.469 0.286038,-0.9191 0.18907,-2.0715 0.298837,-2.5459 0.157716,-0.6843 0.803497,-2.1703 0.852733,-3.0078 0.02774,-0.4747 -1.980619,0.6756 -2.933376,0.6756 -0.953171,0 -1.881416,-0.5693 -2.732747,-0.6108 -1.053565,-0.05 -1.730546,0.8123 -2.68372,0.662 -0.544611,-0.087 -1.003136,-0.5658 -1.954702,-0.6023 -1.354377,-0.049 -3.00946,0.7526 -6.118119,0.653 -3.058282,-0.099 -5.88313,-3.8639 -6.268836,-4.4627 -0.451269,-0.703 -1.002721,-0.703 -1.604655,-0.1513 -0.601674,0.5511 -1.343285,0.1185 -1.554226,-0.2506 -0.401462,-0.7025 -1.473633,-2.7548 -3.134573,-3.184 -2.296873,-0.5952 -3.460159,1.2718 -3.309131,2.7574 0.153048,1.5083 1.128301,1.9304 1.579777,2.7322 0.450854,0.8021 0.681853,1.3204 1.530955,1.6757 0.602296,0.2496 0.826609,0.6214 0.646817,1.1155 -0.156884,0.4308 -0.783488,0.5294 -1.194901,0.5486 -0.875172,0.042 -1.488611,-0.1957 -1.936044,-0.4818 -0.520304,-0.3304 -0.94343,-0.7917 -1.397342,-1.5741 -0.525591,-0.8628 -1.353185,-1.2391 -2.317086,-1.2391 -0.459561,0 -0.889373,0.1215 -1.2714,0.3185 -1.510949,0.7849 -3.309752,1.2516 -5.24601,1.2516 l -2.183671,0 c -1.06288,-3.1516 -1.638862,-6.5271 -1.638862,-10.0377 0,-17.3442 14.059606,-31.4037 31.40326,-31.4037 17.343655,0 31.402744,14.0595 31.402744,31.4037 0,6.2929 -1.85131,12.155 -5.03926,17.0689"
       style="fill:#000000;fill-opacity:1;fill-rule:nonzero;stroke:none"
       id="path6116" />
    <path
       inkscape:connector-curvature="0"
       d="m 62.317237,1034.0594 c -1.21019,-0.2783 -2.494495,-0.4535 -3.793311,-0.4535 -2.22048,0 -4.241575,0.3847 -5.732675,1.0057 -0.164399,0.081 -0.281373,0.2531 -0.281373,0.4484 0,0.071 0.01821,0.1437 0.04514,0.2044 0.176113,0.5102 -0.1134,1.0639 -1.555677,1.3818 -2.139105,0.4697 -3.489286,2.6764 -4.26246,3.4083 -0.907197,0.8631 -3.469483,1.3926 -3.0844,0.8787 0.301641,-0.4009 1.455442,-1.6535 2.15673,-3.0075 0.627639,-1.2097 1.186401,-1.5552 1.95574,-2.7088 0.225917,-0.3375 1.100936,-1.5279 1.355827,-2.4693 0.286038,-0.9182 0.18907,-2.0708 0.298837,-2.5455 0.157716,-0.6847 0.803497,-2.1697 0.852733,-3.0089 0.02774,-0.4743 -1.980619,0.6772 -2.933376,0.6772 -0.953171,0 -1.881416,-0.5705 -2.732747,-0.6114 -1.053565,-0.049 -1.730546,0.8123 -2.68372,0.6624 -0.544611,-0.087 -1.003136,-0.5673 -1.954702,-0.6027 -1.354377,-0.049 -3.00946,0.7526 -6.118119,0.6523 -3.058282,-0.099 -5.88313,-3.8642 -6.268836,-4.463 -0.451269,-0.702 -1.002721,-0.702 -1.604655,-0.1503 -0.601674,0.5511 -1.343285,0.1179 -1.554226,-0.2521 -0.401462,-0.701 -1.473633,-2.7529 -3.134573,-3.1831 -2.296873,-0.5953 -3.460159,1.272 -3.309131,2.758 0.153048,1.5082 1.128301,1.9304 1.579777,2.7321 0.450854,0.8028 0.681853,1.32 1.530955,1.6744 0.602296,0.2514 0.826609,0.6225 0.646817,1.1169 -0.156884,0.4302 -0.783488,0.5283 -1.194901,0.5482 -0.875172,0.042 -1.488611,-0.1954 -1.936044,-0.4804 -0.520304,-0.3325 -0.94343,-0.7921 -1.397342,-1.5755 -0.525591,-0.8625 -1.353185,-1.2401 -2.317086,-1.2401 -0.459561,0 -0.889373,0.1225 -1.2714,0.319 -1.510949,0.7868 -3.309752,1.2521 -5.24601,1.2521 l -2.183671,0 c 4.187357,12.4202 15.931745,21.3646 29.764397,21.3646 11.049938,0 20.766548,-5.7068 26.363482,-14.3338"
       style="fill:#ffffff;fill-opacity:1;fill-rule:nonzero;stroke:none"
       id="path6118" />
    <path
       inkscape:connector-curvature="0"
       d="m 42.869978,1031.1805 c 0.1616,0.1574 0.43997,0.6873 0.09941,1.3601 -0.190676,0.3563 -0.396175,0.6072 -0.763638,0.9004 -0.441525,0.3542 -1.305035,0.7626 -2.489363,0.011 -0.63671,-0.4039 -0.675219,-0.5396 -1.554433,-0.4255 -0.628055,0.082 -0.87766,-0.5517 -0.652103,-1.0792 0.225919,-0.5253 1.153749,-0.9515 2.307134,-0.2749 0.518905,0.3047 1.3281,0.9481 2.036281,0.3782 0.293763,-0.2354 0.46972,-0.3923 0.877038,-0.8635 0.01824,-0.02 0.04416,-0.031 0.07287,-0.031 0.02591,0 0.04924,0.01 0.0668,0.024"
       style="fill:#000000;fill-opacity:1;fill-rule:nonzero;stroke:none"
       id="path6120" />
    <path
       inkscape:connector-curvature="0"
       d="m 53.674149,1008.6356 c -0.309934,1.0427 -0.751303,2.3773 -2.714504,3.3851 -0.285835,0.1461 -0.395346,-0.094 -0.263184,-0.3193 0.742024,-1.2623 0.873617,-1.578 1.089223,-2.0758 0.30164,-0.7277 0.459766,-1.7633 -0.140509,-3.9229 -1.180905,-4.2501 -3.644771,-9.93079 -5.435072,-11.7738 -1.728577,-1.77821 -4.860144,-2.27938 -7.690226,-1.55276 -1.042215,0.26742 -3.081346,1.32732 -6.863825,0.47576 -6.545339,-1.47397 -7.515098,1.80363 -7.890645,3.23098 -0.375962,1.42831 -1.277463,5.48652 -1.277463,5.48652 -0.300655,1.6525 -0.694447,4.5265 9.468765,6.4619 4.734408,0.902 4.975306,2.1256 5.184847,3.006 0.375755,1.5776 0.976859,2.4801 1.653062,2.9306 0.676567,0.4514 0,0.825 -0.750939,0.9017 -2.016016,0.2092 -9.468765,-1.9278 -13.87738,-4.4331 -3.607144,-2.2043 -3.667886,-4.1898 -2.842469,-5.8736 -5.448861,-0.5889 -9.537645,0.5112 -10.278996,3.0905 -1.2730583,4.4274 9.732985,11.9887 22.264489,15.7827 13.151002,3.9822 26.677196,1.2026 28.180216,-7.0636 0.683097,-3.7556 -2.479982,-6.5339 -7.81539,-7.7369 z m -20.163992,-8.0947 c -3.627564,0.2624 -4.004355,0.6542 -4.683772,1.378 -0.958253,1.0203 -2.219908,-1.3241 -2.219908,-1.3241 -0.757211,-0.1595 -1.675712,-1.38036 -1.179923,-2.52081 0.487912,-1.12806 1.389464,-0.78935 1.671877,-0.43833 0.343362,0.42735 1.076421,1.12685 2.028558,1.10153 0.951981,-0.0251 2.050482,-0.22527 3.582473,-0.22527 1.552205,0 2.595818,0.57965 2.654748,1.07764 0.05043,0.42514 -0.125736,0.82624 -1.854053,0.95134 z m 3.810569,-5.99421 c -0.0054,0 -0.01114,0 -0.01637,0 -0.05587,0 -0.101428,-0.0435 -0.101428,-0.0954 0,-0.0378 0.02327,-0.071 0.05686,-0.0861 0.703361,-0.37159 1.752468,-0.66755 2.953225,-0.78932 0.360155,-0.0373 0.712432,-0.056 1.051129,-0.0591 0.05992,0 0.118843,0 0.179586,0 2.012594,0.0456 3.624557,0.8448 3.600457,1.786 -0.0241,0.94116 -1.674105,1.66784 -3.687322,1.62269 -0.652103,-0.0149 -1.263521,-0.10934 -1.789889,-0.26122 -0.06172,-0.0162 -0.107284,-0.0691 -0.107284,-0.13214 0,-0.0627 0.04556,-0.1161 0.108683,-0.13164 1.256059,-0.29079 2.10371,-0.76553 2.044004,-1.21436 -0.07935,-0.59499 -1.721891,-0.9184 -3.669079,-0.72249 -0.212961,0.0212 -0.421311,0.0487 -0.622561,0.0798"
       style="fill:#cc0000;fill-opacity:1;fill-rule:nonzero;stroke:none"
       id="path6122" />
    <path
       inkscape:connector-curvature="0"
       d="m 198.02903,1032.6281 0.27728,0 0.41774,0.6873 0.2695,0 -0.45246,-0.6992 c 0.23427,-0.029 0.41204,-0.1526 0.41204,-0.4356 0,-0.3133 -0.18554,-0.4514 -0.56078,-0.4514 l -0.6038,0 0,1.5862 0.24048,0 0,-0.6873 z m 0,-0.2041 0,-0.4901 0.32756,0 c 0.16637,0 0.34517,0.036 0.34517,0.2308 0,0.2451 -0.18088,0.2593 -0.38457,0.2593 l -0.28816,0"
       style="fill:#ffffff;fill-opacity:1;fill-rule:nonzero;stroke:none"
       id="path6124" />
    <path
       inkscape:connector-curvature="0"
       d="m 199.86582,1032.5239 c 0,0.8573 -0.69449,1.5526 -1.55225,1.5526 -0.85724,0 -1.55329,-0.6953 -1.55329,-1.5526 0,-0.8578 0.69605,-1.5527 1.55329,-1.5527 0.85776,0 1.55225,0.6949 1.55225,1.5527 z m -1.55225,-1.2776 c -0.70642,0 -1.27808,0.5719 -1.27808,1.2776 0,0.7059 0.57166,1.2778 1.27808,1.2778 0.70434,0 1.27601,-0.5719 1.27601,-1.2778 0,-0.7057 -0.57167,-1.2776 -1.27601,-1.2776"
       style="fill:#ffffff;fill-opacity:1;fill-rule:nonzero;stroke:none"
       id="path6126" />
    <path
       inkscape:connector-curvature="0"
       d="m 67.006139,1032.6281 0.277282,0 0.417735,0.6873 0.269508,0 -0.451943,-0.6992 c 0.233745,-0.029 0.411516,-0.1526 0.411516,-0.4356 0,-0.3133 -0.185026,-0.4514 -0.560263,-0.4514 l -0.604318,0 0,1.5862 0.240483,0 0,-0.6873 z m 0,-0.2041 0,-0.4901 0.327555,0 c 0.166369,0 0.345177,0.036 0.345177,0.2308 0,0.2451 -0.180881,0.2593 -0.384048,0.2593 l -0.288684,0"
       style="fill:#ffffff;fill-opacity:1;fill-rule:nonzero;stroke:none"
       id="path6128" />
    <path
       inkscape:connector-curvature="0"
       d="m 68.842933,1032.5239 c 0,0.8573 -0.694498,1.5526 -1.552256,1.5526 -0.85724,0 -1.552775,-0.6953 -1.552775,-1.5526 0,-0.8578 0.695535,-1.5527 1.552775,-1.5527 0.857758,0 1.552256,0.6949 1.552256,1.5527 z m -1.552256,-1.2776 c -0.70642,0 -1.278086,0.5719 -1.278086,1.2776 0,0.7059 0.571666,1.2778 1.278086,1.2778 0.704345,0 1.27653,-0.5719 1.27653,-1.2778 0,-0.7057 -0.572185,-1.2776 -1.27653,-1.2776"
       style="fill:#ffffff;fill-opacity:1;fill-rule:nonzero;stroke:none"
       id="path6130" />
  </g>
</svg>
